PathFileType	4	(X/Y/Z)	D:\TRACE\spotREDO_2-26-24\spot_justBody_Motion_2_3-v60.trc
DataRate	CameraRate	NumFrames	NumMarkers	Units	OrigDataRate	OrigDataStartFrame	OrigNumFrames
100.00	100.00	      24	9	mm	100.00	876	      7000
Frame#	Time	front left toe			Front right toe			aft left toe			aft right toe			Arm			FL body			FR body			AL Body			AR Body			
		X1	Y1	Z1	X2	Y2	Z2	X3	Y3	Z3	X4	Y4	Z4	X5	Y5	Z5	X6	Y6	Z6	X7	Y7	Z7	X8	Y8	Z8	X9	Y9	Z9	

876	8.750	-293.17523	12.18311	-163.02496	303.43039	13.94455	-148.28970	-231.83864	46.73358	337.79892	244.33104	53.43098	386.50095	31.87458	820.70599	-272.58502	-49.37170	560.41016	-249.01175	106.46969	565.91687	-246.85899	-69.94804	576.22662	634.28833	78.23382	578.16602	638.59119	
877	8.760	-293.01309	12.01526	-163.14053	304.64014	14.38169	-147.68544	-231.55768	46.91994	337.57852	244.66156	53.88824	386.15475	32.00617	820.19714	-274.21005	-49.08028	559.76379	-250.10779	106.64774	565.47540	-247.82306	-69.88064	577.23016	633.07837	78.21729	579.23737	637.25024	
878	8.770	-292.83966	11.75495	-163.41345	304.34119	13.47367	-148.58662	-231.23375	47.07138	337.40799	244.93646	54.18605	386.04739	32.09167	819.50909	-275.89954	-48.86491	559.10413	-251.39427	107.19061	564.82770	-249.16544	-69.31155	577.76245	631.76434	78.57371	579.92139	636.28107	
879	8.780	-292.39941	11.46803	-163.79575	304.38397	12.91789	-149.09741	-230.92892	47.33118	337.17554	245.68176	54.81883	385.84375	32.60440	818.80475	-277.37897	-48.43139	558.41907	-252.46956	107.45589	564.41608	-250.43933	-69.49586	578.69971	630.71356	78.81355	580.81879	635.04895	
880	8.790	-291.94110	11.18553	-163.96249	304.71765	12.86279	-149.15796	-230.70221	47.81072	336.77859	246.01830	55.23090	385.37756	32.41763	818.35645	-279.17010	-48.11354	557.91302	-253.72964	107.88456	563.64661	-251.25378	-68.83717	579.49554	629.48090	79.15265	581.69275	633.75891	
881	8.800	-291.69684	11.04135	-164.08495	305.56796	13.49008	-149.05763	-230.31570	48.40816	336.62817	246.24750	55.58198	385.13211	33.42052	817.75372	-280.76404	-47.84747	557.55139	-254.97217	107.86825	563.17944	-252.89821	-68.38144	580.18542	628.28912	79.67719	582.45868	632.48547	
882	8.810	-291.31714	10.86541	-164.18738	306.08450	13.11442	-149.30986	-229.83217	48.75803	336.45398	246.28355	55.96439	384.61172	33.66722	817.04962	-282.51791	-47.45163	556.81189	-256.26248	108.42377	562.42053	-254.04289	-67.85712	581.18982	626.90485	80.18222	583.40063	631.06146	
883	8.820	-290.86075	10.55577	-164.39235	306.11325	12.20397	-149.56691	-229.40335	49.08848	336.18076	246.66660	56.26181	384.40649	34.11491	816.25598	-284.26398	-47.29431	555.93231	-257.59686	108.99648	561.75433	-255.40305	-67.14647	582.07507	625.64044	80.75006	584.36328	629.77020	
884	8.830	-290.59598	10.42992	-164.51918	306.07062	11.91611	-149.84219	-229.14272	49.24425	335.95004	246.91055	56.29147	384.36673	34.58392	815.47296	-286.18683	-46.38689	555.22504	-258.88879	109.28906	561.25635	-256.89264	-66.52419	582.94336	624.38080	81.25782	585.15601	628.36713	
885	8.840	-289.98425	10.08528	-164.71774	306.42487	12.07728	-149.97682	-228.82069	49.49413	335.72830	247.62900	56.56020	384.20041	35.00342	814.62006	-288.12759	-46.04503	554.67682	-260.31241	109.93546	560.44757	-258.12918	-66.09640	583.75500	622.88440	81.81081	585.94342	626.84564	
886	8.850	-289.45450	10.00326	-164.74803	307.12817	11.86840	-150.31139	-228.31950	49.64987	335.47342	247.88264	56.58200	383.42502	35.79811	814.08594	-289.78583	-45.30891	554.13000	-261.70502	110.54984	559.54034	-259.32401	-65.08539	584.52887	621.44214	82.80901	586.62744	625.37152	
887	8.860	-289.23181	10.02281	-164.82320	307.50687	11.86349	-150.47159	-227.82835	49.97452	335.12225	248.74768	57.61217	383.62643	36.73844	813.41797	-291.76303	-45.05608	553.96051	-263.63766	111.12880	559.01825	-261.22565	-64.47149	585.43799	619.74139	83.37650	587.47015	623.73584	
888	8.870	-288.79440	9.89495	-164.77541	308.45813	12.48810	-150.18484	-227.27354	49.97810	334.83557	249.08214	57.94131	383.46793	37.67072	812.70959	-293.44577	-43.63747	552.89532	-264.88693	112.00432	558.32074	-262.82211	-63.26423	586.16406	618.06696	84.28396	588.15277	622.16901	
889	8.880	-288.25241	9.69637	-164.79950	308.91614	12.33248	-150.55774	-227.05800	50.11088	334.51535	249.45528	58.23969	383.43567	38.51708	811.97534	-295.78589	-42.84374	552.37292	-266.58878	113.01953	557.69806	-264.50778	-62.69812	587.19568	616.58099	85.23515	588.73022	620.35168	
890	8.890	-287.52930	9.39763	-164.94490	308.16699	12.06559	-151.86850	-226.93059	49.92821	334.49399	250.22252	58.61844	383.51718	39.88120	811.22968	-298.03967	-41.90783	551.74036	-268.39111	113.92358	556.94678	-266.23492	-61.43214	587.48785	614.79095	86.32449	589.15881	618.46240	
891	8.900	-287.18362	9.11327	-164.70306	307.80118	11.80575	-152.87456	-227.94508	49.13720	334.76367	250.98187	59.17776	383.24942	41.28732	810.66870	-300.21896	-40.86988	551.39832	-270.35538	114.97397	556.51581	-268.45145	-60.25290	587.57593	612.71136	87.72346	589.45032	616.42542	
892	8.910	-286.12305	9.17439	-166.22733	309.65775	10.95782	-152.59090	-233.93344	54.73822	333.67169	251.57811	58.13688	382.50381	42.49876	810.17761	-302.61533	-39.19579	550.94073	-272.54819	116.64233	555.76184	-270.38599	-58.65556	587.99457	610.42883	89.19211	589.57098	614.33948	
893	8.920	-285.30887	9.36885	-166.71016	310.45242	11.15060	-152.27509	-234.67804	62.37944	339.36597	252.78578	58.36313	382.71362	44.88426	809.64081	-304.73273	-37.56415	550.38788	-274.90176	118.69547	555.65863	-272.24994	-57.84388	586.99170	608.07794	89.20569	589.48615	612.21460	
894	8.930	-284.36740	9.47127	-167.30847	311.27243	10.60380	-152.93825	-226.47536	72.96468	345.86188	253.43684	58.43457	382.51077	45.41803	809.71301	-306.84567	-35.52356	550.15497	-277.14499	120.46173	556.09467	-274.57037	-57.59919	586.29694	605.93103	90.04665	589.14545	610.06067	
895	8.940	-283.29846	9.56353	-167.61128	311.96832	10.73021	-152.65060	-232.77602	82.75746	351.22610	253.39697	58.60568	382.33966	46.75506	809.70514	-308.85767	-33.88468	549.25098	-279.26498	121.98403	555.50604	-276.63077	-56.71849	586.59778	603.75275	90.82580	589.77179	608.01685	
896	8.950	-282.91888	9.28290	-167.38287	313.53940	9.93169	-152.82246	-228.60117	96.69689	347.77692	254.07733	58.91541	382.02509	47.74604	808.78149	-310.99927	-32.63765	548.31854	-281.22061	123.24038	554.59119	-278.59857	-55.58681	587.33545	601.68579	92.38838	590.20026	606.07068	
897	8.960	-282.51071	9.07802	-167.27826	314.09924	9.72787	-152.91769	-237.43909	111.47274	342.65851	254.85123	58.74225	381.80630	48.97640	807.67090	-313.46176	-31.69407	547.09589	-282.84137	124.29911	553.22400	-279.81952	-53.95117	588.11597	599.89337	93.93258	591.11090	604.27148	
898	8.970	-281.81271	8.92795	-167.37828	315.21994	10.35410	-152.90230	-236.10361	123.89370	337.69016	256.14084	58.95942	381.91629	50.44266	805.95148	-315.56833	-30.79309	546.51111	-284.41830	125.06857	552.74701	-281.97443	-52.52443	588.41425	598.34296	95.20619	591.36450	602.47705	
899	8.980	-281.30994	8.88236	-167.40201	315.72061	10.46663	-152.99944	-237.99017	135.79074	336.81052	256.61334	59.01039	381.90970	51.09301	804.90210	-317.92325	-29.64889	545.84668	-285.92603	125.98315	552.10986	-283.62189	-51.82212	588.57855	596.46942	96.16717	591.58832	600.81488	
